<svg
  xmlns="http://www.w3.org/2000/svg"
  xmlns:xlink="http://www.w3.org/1999/xlink"
  version="1.1"
  width="500"
  height="500"
  viewBox="40 270 500 330"
  xml:space="preserve">
  <rect x="0" y="0" width="100%" height="100%" fill="#673ab7"></rect>

  <g transform="matrix(1,0,0,1,290.39985436862014,245.02146454177236)" style="">
    <path fill="#ffffff" opacity="1" d="M-86.54 11.70C-86.20 12.54-85.49 13.17-84.65 13.17L-77.52 13.17C-76.69 13.17-76.10 12.54-76.48 11.70L-88.22-14.75C-88.59-15.59-89.26-16.18-90.10-16.18L-98.70-16.18C-99.54-16.18-100.21-15.55-100.58-14.71L-112.32 11.70C-112.70 12.54-112.11 13.17-111.28 13.17L-104.57 13.17C-103.73 13.17-103.02 12.54-102.68 11.70L-101.21 7.93L-88.01 7.93ZM-94.71-7.37L-94.30-7.37L-90.94 1.01L-98.28 1.01Z"/>
    <path fill="#ffffff" opacity="1" d="M-51.82 0.59L-62.30-14.71C-62.72-15.34-63.56-16.18-64.61-16.18L-71.74-16.18C-72.58-16.18-73.21-15.55-73.21-14.71L-73.21 11.70C-73.21 12.54-72.58 13.17-71.74 13.17L-65.45 13.17C-64.61 13.17-63.98 12.54-63.98 11.70L-63.98-3.60L-63.56-3.60L-53.08 11.70C-52.66 12.33-51.82 13.17-50.77 13.17L-43.65 13.17C-42.81 13.17-42.18 12.54-42.18 11.70L-42.18-14.71C-42.18-15.55-42.81-16.18-43.65-16.18L-49.94-16.18C-50.77-16.18-51.40-15.55-51.40-14.71L-51.40 0.59Z"/>
    <path fill="#ffffff" opacity="1" d="M-13.12 11.70C-12.79 12.54-12.08 13.17-11.24 13.17L-4.11 13.17C-3.27 13.17-2.68 12.54-3.06 11.70L-14.80-14.75C-15.18-15.59-15.85-16.18-16.69-16.18L-25.28-16.18C-26.12-16.18-26.79-15.55-27.17-14.71L-38.91 11.70C-39.29 12.54-38.70 13.17-37.86 13.17L-31.15 13.17C-30.31 13.17-29.60 12.54-29.27 11.70L-27.80 7.93L-14.59 7.93ZM-21.30-7.37L-20.88-7.37L-17.53 1.01L-24.86 1.01Z"/>
    <path fill="#ffffff" opacity="1" d="M24.95 0.17C24.95 0.17 30.61-1.08 30.61-6.53C30.61-11.78 26.20-16.18 16.98-16.18L1.68-16.18C0.84-16.18 0.21-15.55 0.21-14.71L0.21 11.70C0.21 12.54 0.84 13.17 1.68 13.17L7.97 13.17C8.80 13.17 9.43 12.54 9.43 11.70L9.43 3.11L14.88 3.11C17.19 3.11 17.99 3.95 18.66 5.20L22.22 11.70C22.68 12.54 23.27 13.17 24.95 13.17L31.44 13.17C32.49 13.17 32.83 12.33 32.49 11.70L28.93 5.20C26.83 1.43 24.95 0.59 24.95 0.59ZM9.43-3.60L9.43-9.47L16.98-9.47C19.71-9.47 20.96-8.21 20.96-6.53C20.96-4.86 19.71-3.60 16.98-3.60Z"/>
    <path fill="#ffffff" opacity="1" d="M44.78-1.50C44.78-7.16 47.71-10.10 52.32-10.10C56.94-10.10 59.87-7.16 59.87-1.50C59.87 4.16 56.94 7.09 52.32 7.09C47.71 7.09 44.78 4.16 44.78-1.50ZM69.51-1.46C69.51-10.94 63.44-17.02 52.32-17.02C41.21-17.02 35.13-10.94 35.13-1.50C35.13 7.51 41.21 13.59 52.32 13.59L70.14 13.59C70.98 13.59 71.61 12.96 71.61 12.12L71.61 7.93C71.61 7.09 70.98 6.46 70.14 6.46L66.58 6.46L66.58 6.04C66.58 6.04 69.51 3.11 69.51-1.46Z"/>
  </g>

  <g transform="matrix(1,0,0,1,303.475,277.55328546781027)" style="">
    <path fill="#ffffff" opacity="1" d="M-115.21-7.92L-115.21-6.97L-123.29-6.97L-123.29-1.21L-116.77-1.21L-116.77-0.26L-123.29-0.26L-123.29 6.44L-124.97 6.44L-124.97-7.92L-115.21-7.92Z"/>
    <path fill="#ffffff" opacity="1" d="M-108.05-2.79L-108.05-1.52Q-108.66-1.72-109.22-1.72L-109.22-1.72Q-110.41-1.72-111.56-0.39L-111.56-0.39L-111.56 6.44L-113.16 6.44L-113.16-2.79L-111.56-2.79L-111.56-1.25Q-110.14-2.93-108.75-2.93L-108.75-2.93Q-108.44-2.93-108.05-2.79L-108.05-2.79Z"/>
    <path fill="#ffffff" opacity="1" d="M-98.57 1.83L-98.57 2.03L-104.71 2.03Q-104.71 5.71-102.53 5.71L-102.53 5.71Q-100.97 5.71-99.66 4.86L-99.66 4.86L-99.66 5.73Q-100.97 6.65-102.53 6.65L-102.53 6.65Q-104.34 6.65-105.42 5.33Q-106.51 4.00-106.51 1.83Q-106.51-0.35-105.42-1.67Q-104.34-2.99-102.53-2.99L-102.53-2.99Q-100.75-2.99-99.66-1.67Q-98.57-0.35-98.57 1.83L-98.57 1.83ZM-104.71 1.17L-100.38 1.17Q-100.38-0.16-100.94-1.15Q-101.50-2.13-102.53-2.13L-102.53-2.13Q-103.58-2.13-104.14-1.16Q-104.71-0.18-104.71 1.17L-104.71 1.17Z"/>
    <path fill="#ffffff" opacity="1" d="M-88.48 1.83L-88.48 2.03L-94.61 2.03Q-94.61 5.71-92.44 5.71L-92.44 5.71Q-90.88 5.71-89.57 4.86L-89.57 4.86L-89.57 5.73Q-90.88 6.65-92.44 6.65L-92.44 6.65Q-94.24 6.65-95.33 5.33Q-96.42 4.00-96.42 1.83Q-96.42-0.35-95.33-1.67Q-94.24-2.99-92.44-2.99L-92.44-2.99Q-90.65-2.99-89.57-1.67Q-88.48-0.35-88.48 1.83L-88.48 1.83ZM-94.61 1.17L-90.28 1.17Q-90.28-0.16-90.85-1.15Q-91.41-2.13-92.44-2.13L-92.44-2.13Q-93.48-2.13-94.05-1.16Q-94.61-0.18-94.61 1.17L-94.61 1.17Z"/>
    <path fill="#ffffff" opacity="1" d=""/>
    <path fill="#ffffff" opacity="1" d="M-68.58 2.28L-68.58 2.28Q-68.58 4.23-70.19 5.50Q-71.80 6.77-73.99 6.77L-73.99 6.77Q-76.81 6.77-79.39 5.13L-79.39 5.13L-79.39 4.31Q-77.03 5.83-73.99 5.83L-73.99 5.83Q-72.46 5.83-71.33 4.95Q-70.20 4.06-70.20 2.71L-70.20 2.71Q-70.20 0.52-74.22-0.33L-74.22-0.33Q-75.20-0.53-76.04-0.85Q-76.87-1.17-77.59-1.64Q-78.32-2.11-78.74-2.80Q-79.16-3.48-79.16-4.33L-79.16-4.33Q-79.16-6.07-77.63-7.16Q-76.09-8.24-73.99-8.24L-73.99-8.24Q-71.49-8.24-69.40-6.60L-69.40-6.60L-69.40-5.78Q-71.35-7.30-73.99-7.30L-73.99-7.30Q-75.43-7.30-76.49-6.61Q-77.54-5.93-77.54-4.76L-77.54-4.76Q-77.54-4.18-77.24-3.75Q-76.93-3.32-76.29-3.04Q-75.66-2.77-75.15-2.62Q-74.65-2.48-73.79-2.29L-73.79-2.29Q-71.57-1.82-70.08-0.65Q-68.58 0.52-68.58 2.28Z"/>
    <path fill="#ffffff" opacity="1" d="M-58.73-1.67Q-57.87-0.35-57.87 1.83Q-57.87 4.00-58.84 5.33Q-59.82 6.65-61.69 6.65L-61.69 6.65Q-62.94 6.65-64.21 6.10L-64.21 6.10L-64.21 11.16L-65.81 11.16L-65.81-2.79L-64.21-2.79L-64.21-1.86Q-62.79-2.99-61.38-2.99L-61.38-2.99Q-59.59-2.99-58.73-1.67ZM-59.68 1.83L-59.68 1.83Q-59.68-0.02-60.17-1.07Q-60.66-2.13-61.95-2.13L-61.95-2.13Q-63.08-2.13-64.21-1.00L-64.21-1.00L-64.21 5.23Q-63.10 5.79-61.95 5.79L-61.95 5.79Q-60.78 5.79-60.23 4.63Q-59.68 3.47-59.68 1.83Z"/>
    <path fill="#ffffff" opacity="1" d="M-47.67 1.83L-47.67 2.03L-53.81 2.03Q-53.81 5.71-51.63 5.71L-51.63 5.71Q-50.07 5.71-48.76 4.86L-48.76 4.86L-48.76 5.73Q-50.07 6.65-51.63 6.65L-51.63 6.65Q-53.44 6.65-54.53 5.33Q-55.61 4.00-55.61 1.83Q-55.61-0.35-54.53-1.67Q-53.44-2.99-51.63-2.99L-51.63-2.99Q-49.85-2.99-48.76-1.67Q-47.67-0.35-47.67 1.83L-47.67 1.83ZM-53.81 1.17L-49.48 1.17Q-49.48-0.16-50.04-1.15Q-50.61-2.13-51.63-2.13L-51.63-2.13Q-52.68-2.13-53.24-1.16Q-53.81-0.18-53.81 1.17L-53.81 1.17Z"/>
    <path fill="#ffffff" opacity="1" d="M-37.58 1.83L-37.58 2.03L-43.71 2.03Q-43.71 5.71-41.54 5.71L-41.54 5.71Q-39.98 5.71-38.67 4.86L-38.67 4.86L-38.67 5.73Q-39.98 6.65-41.54 6.65L-41.54 6.65Q-43.35 6.65-44.43 5.33Q-45.52 4.00-45.52 1.83Q-45.52-0.35-44.43-1.67Q-43.35-2.99-41.54-2.99L-41.54-2.99Q-39.76-2.99-38.67-1.67Q-37.58-0.35-37.58 1.83L-37.58 1.83ZM-43.71 1.17L-39.39 1.17Q-39.39-0.16-39.95-1.15Q-40.51-2.13-41.54-2.13L-41.54-2.13Q-42.59-2.13-43.15-1.16Q-43.71-0.18-43.71 1.17L-43.71 1.17Z"/>
    <path fill="#ffffff" opacity="1" d="M-28.27-1.52L-28.27-0.65Q-29.33-2.13-31.14-2.13L-31.14-2.13Q-32.25-2.13-32.93-1.04Q-33.62 0.04-33.62 1.83Q-33.62 3.61-32.93 4.70Q-32.25 5.79-31.14 5.79L-31.14 5.79Q-30.20 5.79-29.59 5.47Q-28.99 5.15-28.47 4.37L-28.47 4.37L-28.47 5.23Q-29.44 6.65-31.14 6.65L-31.14 6.65Q-33.07 6.65-34.25 5.33Q-35.43 4.00-35.43 1.83Q-35.43-0.35-34.25-1.67Q-33.07-2.99-31.14-2.99L-31.14-2.99Q-29.31-2.99-28.27-1.52L-28.27-1.52Z"/>
    <path fill="#ffffff" opacity="1" d="M-18.69-0.22L-18.69 6.44L-20.29 6.44L-20.29-0.22Q-20.29-0.96-20.78-1.50Q-21.27-2.05-21.99-2.05L-21.99-2.05Q-23.26-2.05-24.51-0.80L-24.51-0.80L-24.51 6.44L-26.11 6.44L-26.11-7.92L-24.51-7.92L-24.51-1.43Q-22.91-2.99-21.31-2.99L-21.31-2.99Q-20.21-2.99-19.45-2.17Q-18.69-1.35-18.69-0.22L-18.69-0.22Z"/>
    <path fill="#ffffff" opacity="1" d="M-15.55 4.43L-13.95 4.43Q-13.95 6.88-15.40 8.80L-15.40 8.80L-16.27 8.80Q-15.55 6.65-15.55 4.43L-15.55 4.43Z"/>
    <path fill="#ffffff" opacity="1" d=""/>
    <path fill="#ffffff" opacity="1" d="M6.44-6.10Q8.13-4.08 8.13-0.74Q8.13 2.61 6.44 4.63Q4.76 6.65 1.73 6.65L1.73 6.65Q-1.33 6.65-3.01 4.63Q-4.70 2.61-4.70-0.74Q-4.70-4.08-3.01-6.10Q-1.33-8.12 1.73-8.12L1.73-8.12Q4.76-8.12 6.44-6.10ZM5.69 2.55Q6.12 1.15 6.12-0.74Q6.12-2.62 5.69-4.02Q5.27-5.41 4.27-6.30Q3.26-7.18 1.73-7.18L1.73-7.18Q-0.55-7.18-1.62-5.41Q-2.69-3.65-2.69-0.74Q-2.69 2.18-1.62 3.94Q-0.55 5.71 1.73 5.71L1.73 5.71Q3.26 5.71 4.27 4.82Q5.27 3.94 5.69 2.55Z"/>
    <path fill="#ffffff" opacity="1" d="M18.42-0.22L18.42 6.44L16.82 6.44L16.82-0.22Q16.82-0.96 16.33-1.50Q15.84-2.05 15.12-2.05L15.12-2.05Q13.85-2.05 12.60-0.80L12.60-0.80L12.60 6.44L11.00 6.44L11.00-2.79L12.60-2.79L12.60-1.43Q14.20-2.99 15.80-2.99L15.80-2.99Q16.91-2.99 17.66-2.17Q18.42-1.35 18.42-0.22L18.42-0.22Z"/>
    <path fill="#ffffff" opacity="1" d="M29.03 1.83L29.03 2.03L22.90 2.03Q22.90 5.71 25.07 5.71L25.07 5.71Q26.63 5.71 27.94 4.86L27.94 4.86L27.94 5.73Q26.63 6.65 25.07 6.65L25.07 6.65Q23.27 6.65 22.18 5.33Q21.09 4.00 21.09 1.83Q21.09-0.35 22.18-1.67Q23.27-2.99 25.07-2.99L25.07-2.99Q26.86-2.99 27.94-1.67Q29.03-0.35 29.03 1.83L29.03 1.83ZM22.90 1.17L27.22 1.17Q27.22-0.16 26.66-1.15Q26.10-2.13 25.07-2.13L25.07-2.13Q24.02-2.13 23.46-1.16Q22.90-0.18 22.90 1.17L22.90 1.17Z"/>
    <path fill="#ffffff" opacity="1" d=""/>
    <path fill="#ffffff" opacity="1" d="M49.20 5.50L49.20 6.44L38.94 6.44L38.94-7.92L48.70-7.92L48.70-6.97L40.62-6.97L40.62-1.21L47.14-1.21L47.14-0.26L40.62-0.26L40.62 5.50L49.20 5.50Z"/>
    <path fill="#ffffff" opacity="1" d="M59.29 0.70L59.29 6.44L57.69 6.44L57.69 5.52Q56.27 6.65 54.86 6.65L54.86 6.65Q53.28 6.65 52.31 5.85Q51.35 5.05 51.35 3.59L51.35 3.59Q51.35 2.10 52.40 1.31Q53.44 0.52 55.17 0.52L55.17 0.52Q56.42 0.52 57.69 1.07L57.69 1.07L57.69 0.70Q57.69-0.41 57.14-1.23Q56.58-2.05 55.68-2.05L55.68-2.05Q54.18-2.05 52.66-1.21L52.66-1.21L52.66-1.84Q54.49-2.99 56.31-2.99L56.31-2.99Q57.61-2.99 58.45-1.89Q59.29-0.80 59.29 0.70L59.29 0.70ZM57.69 4.66L57.69 4.66L57.69 1.93Q56.58 1.38 55.43 1.38L55.43 1.38Q54.49 1.38 53.82 2.02Q53.16 2.67 53.16 3.59L53.16 3.59Q53.16 4.60 53.77 5.19Q54.39 5.79 55.43 5.79L55.43 5.79Q56.56 5.79 57.69 4.66Z"/>
    <path fill="#ffffff" opacity="1" d="M69.22-1.52L69.22-0.65Q68.15-2.13 66.35-2.13L66.35-2.13Q65.24-2.13 64.55-1.04Q63.86 0.04 63.86 1.83Q63.86 3.61 64.55 4.70Q65.24 5.79 66.35 5.79L66.35 5.79Q67.29 5.79 67.90 5.47Q68.50 5.15 69.01 4.37L69.01 4.37L69.01 5.23Q68.05 6.65 66.35 6.65L66.35 6.65Q64.42 6.65 63.24 5.33Q62.06 4.00 62.06 1.83Q62.06-0.35 63.24-1.67Q64.42-2.99 66.35-2.99L66.35-2.99Q68.17-2.99 69.22-1.52L69.22-1.52Z"/>
    <path fill="#ffffff" opacity="1" d="M78.80-0.22L78.80 6.44L77.20 6.44L77.20-0.22Q77.20-0.96 76.71-1.50Q76.21-2.05 75.50-2.05L75.50-2.05Q74.22-2.05 72.97-0.80L72.97-0.80L72.97 6.44L71.37 6.44L71.37-7.92L72.97-7.92L72.97-1.43Q74.57-2.99 76.17-2.99L76.17-2.99Q77.28-2.99 78.04-2.17Q78.80-1.35 78.80-0.22L78.80-0.22Z"/>
    <path fill="#ffffff" opacity="1" d="M82.68-7.92L84.69-7.92L84.19 2.90L83.19 2.90L82.68-7.92ZM84.39 4.73Q84.69 5.03 84.69 5.44Q84.69 5.85 84.39 6.15Q84.09 6.44 83.68 6.44Q83.27 6.44 82.97 6.15Q82.68 5.85 82.68 5.44Q82.68 5.03 82.97 4.73Q83.27 4.43 83.68 4.43Q84.09 4.43 84.39 4.73Z"/>
  </g>

  <g transform="matrix(0.0021656764808821354 0 0 0.0021656764808821354 105.63000000000001 251.98)">
    <path style="stroke: none; stroke-width: 0; stroke-dasharray: none; stroke-linecap: butt; stroke-dashoffset: 0; stroke-linejoin: miter; stroke-miterlimit: 4; fill: rgb(255,255,255); fill-rule: nonzero; opacity: 1;" transform=" translate(-29998.741139500013, -30000.442051073063)" d="M 26115 53662 c 18 -273 -605 -760 -1679 -1362 l -476 1644 c 1226 87 2010 21 2137 -219 l 18 -64 z m 20980 -19070 l -2967 -469 c 429 1125 983 1307 1611 1121 c 407 -121 872 -377 1356 -653 z m -3857 -609 l -92 -15 l -13 -2 c -438 -83 -816 -572 -970 -1150 c -63 -237 -92 -493 -75 -741 c 19 -265 89 -525 225 -751 c 192 -319 501 -565 959 -659 c -123 -259 -189 -516 -203 -756 c -17 -297 44 -573 171 -805 c 133 -243 335 -435 592 -554 c 337 -155 763 -182 1243 -25 l 36 12 l 39 23 c 763 440 1434 1167 2103 1892 c 596 646 1191 1290 1801 1668 c 307 -637 759 -1064 1258 -1299 c 379 -179 784 -245 1174 -209 c 393 37 770 178 1088 414 c 244 181 454 417 609 704 l 1525 572 c 206 77 311 306 234 513 c -31 83 -87 150 -156 195 l 0 0 l -1402 913 c -23 15 -48 27 -72 37 c -222 1074 -657 2023 -1209 2798 c -859 1206 -2012 1997 -3107 2186 c -791 221 -1690 -16 -2591 -253 c -856 -226 -1714 -451 -2317 -213 l 0 -1 c -225 97 -470 302 -715 507 c -642 537 -1285 1074 -2180 562 c -268 -120 -492 -272 -674 -444 c -356 -336 -561 -748 -646 -1148 c -87 -409 -47 -815 88 -1124 c 54 -124 122 -234 203 -325 c 528 -692 1312 -540 2095 -388 c 307 60 613 119 860 109 l 0 0 c 341 -25 762 -203 1191 -398 c -419 -311 -782 -889 -1072 -1844 z m 566 -2565 c -16 2 -33 2 -49 2 c -405 -8 -641 125 -757 317 c -67 112 -103 248 -113 392 c -11 161 8 328 50 485 c 80 301 218 545 345 569 l 0 0 l 4312 681 c -352 -135 -701 -291 -1041 -465 c -1022 -521 -1975 -1202 -2709 -1942 c -13 -13 -25 -26 -38 -39 z m 5395 1664 c -937 -362 -1733 -1224 -2532 -2090 c -617 -668 -1235 -1338 -1873 -1719 c -259 -78 -471 -69 -626 2 c -99 46 -177 119 -227 210 c -56 103 -83 232 -74 380 c 18 305 184 669 540 1029 c 673 679 1555 1307 2506 1792 c 805 410 1655 715 2465 856 c 17 -4 33 -8 50 -11 l -2 -5 c -55 -151 -134 -305 -228 -444 z m -166 1406 c -469 186 -947 459 -1409 723 c -570 326 -1119 640 -1659 800 c -26 8 -53 15 -79 22 c 362 502 782 523 1230 272 c 590 -330 1250 -1031 1917 -1817 z m 727 -1989 c 177 230 323 498 417 756 c 139 379 170 763 47 1030 l -21 45 l -34 41 c -891 1082 -1801 2149 -2663 2631 c -913 511 -1738 452 -2386 -668 c -102 45 -204 92 -307 140 c -555 255 -1111 510 -1638 549 l -9 0 c -346 17 -701 -52 -1057 -121 c -543 -106 -1086 -211 -1314 94 l -11 14 l -19 20 c -29 30 -53 70 -73 116 c -72 165 -90 396 -38 642 c 54 256 185 518 411 732 c 126 119 281 224 466 304 l 25 11 l 19 11 c 420 247 852 -114 1284 -476 c 291 -244 583 -488 926 -633 l 8 -5 c 845 -334 1830 -74 2814 185 c 799 211 1597 421 2184 252 l 16 -5 l 29 -5 c 901 -147 1872 -823 2616 -1867 c 669 -939 1146 -2169 1216 -3575 c -55 -476 -272 -833 -569 -1053 c -201 -149 -438 -238 -685 -261 c -251 -23 -514 20 -761 137 c -350 165 -671 478 -894 957 z m 3696 426 l 236 -154 l -224 -84 l 1 10 l -1 28 c -3 67 -7 133 -12 200 z m -2021 -1125 c 143 0 272 58 366 152 c 94 94 152 223 152 366 c 0 143 -58 272 -152 366 c -94 94 -223 152 -366 152 c -143 0 -272 -58 -366 -152 c -94 -94 -152 -223 -152 -366 c 0 -143 58 -272 152 -366 c 94 -94 223 -152 366 -152 z m 83 434 c -21 -21 -51 -34 -83 -34 c -32 0 -62 13 -83 34 c -21 21 -34 51 -34 83 c 0 32 13 62 34 83 c 21 21 51 34 83 34 c 32 0 62 -13 83 -34 c 21 -21 34 -51 34 -83 c 0 -32 -13 -62 -34 -83 z m -39337 3037 c -53 -16 -82 -72 -66 -125 c 16 -53 72 -82 125 -66 l 3921 1203 c 53 16 82 72 66 125 c -16 53 -72 82 -125 66 l -3921 -1203 z m 1086 -214 c -53 -16 -82 -72 -66 -125 c 16 -53 72 -82 125 -66 l 3921 1203 c 53 16 82 72 66 125 c -16 53 -72 82 -125 66 l -3921 -1203 z m 9875 1427 c -53 -16 -82 -72 -66 -125 c 16 -53 72 -82 125 -66 l 3921 1203 c 53 16 82 72 66 125 c -16 53 -72 82 -125 66 l -3921 -1203 z m 1086 -214 c -53 -16 -82 -72 -66 -125 c 16 -53 72 -82 125 -66 l 3921 1203 c 53 16 82 72 66 125 c -16 53 -72 82 -125 66 l -3921 -1203 z m 6410 12607 l -1883 6206 l 2088 610 l 1878 -6191 l -2084 -624 z m -2361 6066 l 1884 -6209 l -1668 -500 l -1601 5617 c -5 25 -10 50 -18 74 c -6 21 -14 41 -22 61 l -155 496 l 1580 461 z m 4922 -5298 l -1877 6187 l 1133 331 c 9 2 19 4 28 7 c 215 64 383 73 497 18 c 109 -52 197 -180 265 -393 l 1490 -4705 l 0 0 c 64 -219 32 -477 -72 -699 c -99 -213 -262 -385 -465 -446 l -999 -299 z m -4487 -2179 l 5693 1706 c 16 4 33 9 48 15 c 422 136 746 468 932 866 c 181 387 234 844 121 1246 c -4 16 -8 31 -14 47 l -1485 4690 c -138 436 -367 721 -680 872 c -307 148 -665 151 -1072 29 c -8 -2 -15 -5 -23 -8 l -5772 -1685 l -512 1636 c -221 736 -1646 967 -3773 744 c -1949 -204 -4555 -750 -7355 -1590 l 0 0 c -2801 -840 -5278 -1817 -7017 -2717 c -1900 -984 -2965 -1960 -2744 -2696 l 926 -2952 l 1 -2 c 1 -3 2 -7 3 -10 l 2 -5 c 3 -9 6 -18 9 -27 l 3792 -11921 c 2 -7 4 -15 6 -22 l 1352 -4509 c 4 -16 8 -31 14 -46 c 753 -2482 2575 -4384 4916 -5453 c 1963 -896 4291 -1206 6654 -780 c 15 -63 30 -124 45 -183 c 36 -143 78 -293 125 -450 l 0 0 c 275 -918 643 -1720 1016 -2276 c 174 -259 356 -470 540 -624 c -149 -138 -273 -300 -368 -477 c -224 -415 -289 -915 -143 -1401 c 146 -487 476 -869 891 -1093 c 299 -161 643 -240 994 -217 c 577 -2234 898 -4601 985 -7060 c 95 -2685 -89 -5489 -524 -8358 c -33 -218 118 -422 336 -455 c 218 -33 422 118 455 336 c 441 2909 627 5762 530 8505 c -90 2532 -420 4965 -1014 7257 c 316 174 567 434 732 740 c 224 415 289 915 143 1401 c -146 487 -476 869 -891 1093 c -198 107 -415 177 -641 206 c 63 223 95 487 98 782 c 6 669 -128 1542 -403 2458 l 0 0 c -42 139 -91 292 -149 456 c -21 59 -41 117 -62 174 c 2177 946 3926 2473 5061 4283 c 1372 2188 1847 4788 1099 7281 c -1 5 -3 10 -5 14 l -1236 4436 l 1 0 l -1637 5741 z m -2967 7387 c -21 -64 -26 -133 -12 -203 c -652 128 -1552 131 -2632 18 c -1948 -204 -4552 -750 -7350 -1588 l 0 0 l -5 -2 c -2801 -840 -5278 -1817 -7017 -2717 c -1020 -529 -1800 -1055 -2269 -1543 l -636 2029 c -94 314 809 963 2344 1759 c 1696 879 4123 1835 6879 2661 l 0 0 c 2757 826 5309 1362 7208 1562 c 1721 180 2832 135 2926 -178 l 562 -1798 z m 282 -35837 l -5 -1 c -8 -2 -17 -5 -25 -8 c -272 -77 -549 -39 -779 85 c -235 126 -421 342 -504 618 c -83 276 -46 560 81 795 c 126 235 342 421 618 504 c 276 83 560 46 795 -81 c 235 -126 421 -342 504 -618 c 83 -276 46 -560 -81 -795 c -124 -231 -335 -415 -604 -499 z m -1339 6399 c 17 -47 34 -93 50 -140 c 42 -121 88 -263 136 -425 l 0 0 c 253 -844 377 -1632 371 -2224 c -4 -448 -48 -738 -132 -763 c -85 -25 -282 192 -531 564 c -330 491 -660 1217 -913 2060 l 0 0 c -41 136 -79 276 -116 419 c -14 53 -26 104 -38 154 c 185 46 369 97 554 152 l 1 0 c 209 63 415 131 618 203 z m -6155 13305 l -2838 9385 c 464 126 936 260 1414 404 l 0 0 l 0 0 l 4 1 l 0 0 l 0 0 c 480 144 950 292 1408 442 l 2796 -9396 l -2787 -837 z m -3069 10150 l -906 2996 c 459 151 931 300 1412 444 l 0 0 l 5 2 c 483 145 959 280 1427 407 l 893 -3001 c -457 -150 -925 -298 -1404 -441 l 0 0 l -5 -2 c -481 -144 -956 -280 -1422 -406 z m -1380 2838 l 897 -2966 c -910 -237 -1783 -438 -2600 -602 l -810 2636 c 776 315 1619 628 2513 932 z m 1128 -3731 l 2842 -9401 l -2503 -752 l -2935 9549 c 819 165 1690 367 2596 604 z m 6586 -8276 l -2801 9410 c 887 301 1727 612 2502 924 l 2813 -9579 l -2515 -756 z m -3029 10176 l -884 2970 c 914 238 1791 440 2611 604 l 777 -2646 c -773 -313 -1614 -626 -2504 -928 z m -7661 707 l 781 -2540 c -804 -150 -1547 -261 -2210 -330 c -86 -9 -170 -17 -252 -25 l -573 1834 c 79 42 160 85 243 128 c 588 305 1264 619 2012 933 z m 1017 -3308 l 2949 -9596 l -2305 -692 l -3100 9923 c 30 3 60 6 91 9 c 709 74 1505 194 2365 356 z m 12666 -6677 l -2827 9626 c 807 337 1536 675 2168 1002 c 28 15 57 29 85 44 l 2890 -9976 l -2316 -696 z m -3053 10397 l -749 2550 c 798 148 1536 258 2195 327 c 92 10 183 19 271 27 l 535 -1846 c -73 -39 -148 -78 -224 -117 c -593 -307 -1275 -623 -2029 -941 z m -13331 -1717 l 510 -1633 c -1282 -92 -2085 -18 -2165 246 c -79 264 544 763 1654 1387 z m 753 -2411 l 3131 -10024 l -1849 -555 l -3393 10666 c 537 -117 1254 -144 2110 -86 z m 18424 -5430 l -2919 10077 c 746 422 1328 838 1712 1230 l 3065 -10749 l -1857 -558 z m -15537 -10440 l 1916 574 c 768 -2261 2206 -4078 3944 -5210 c 498 -325 1021 -593 1560 -799 c -1082 119 -2115 403 -3056 832 c -2023 924 -3621 2523 -4365 4603 z m 2395 718 l 2357 707 c 730 -2251 1841 -4149 3071 -5422 c 621 -643 1275 -1129 1931 -1426 c -1264 55 -2508 481 -3622 1206 c -1643 1070 -3005 2791 -3737 4935 z m 2836 850 l 2459 737 c 688 -2234 1462 -4207 2170 -5618 c 425 -847 841 -1498 1221 -1898 c -50 -12 -101 -23 -151 -34 c -896 94 -1851 666 -2747 1593 c -1179 1220 -2246 3046 -2952 5220 z m 2937 880 l 2547 763 c 646 -2218 1079 -4261 1261 -5800 c 136 -1155 150 -1998 22 -2371 c -67 -22 -135 -43 -203 -63 c -68 -20 -137 -40 -205 -59 c -312 241 -764 952 -1285 1991 c -695 1384 -1456 3328 -2137 5539 z m 3026 907 l 2459 737 c 606 -2204 719 -4316 405 -5983 c -238 -1268 -721 -2270 -1418 -2842 c -48 -19 -96 -37 -145 -55 c 97 543 87 1316 -24 2256 c -185 1567 -624 3640 -1278 5887 z m 2937 880 l 2357 707 c 568 -2194 377 -4380 -406 -6177 c -532 -1219 -1336 -2259 -2362 -3000 c 384 608 663 1374 828 2253 c 327 1741 211 3937 -417 6218 z m 2836 850 l 1916 574 c 522 -2147 68 -4361 -1113 -6245 c -550 -876 -1256 -1682 -2095 -2376 c 337 469 627 982 865 1527 c 829 1902 1030 4210 428 6520 z m 1705 1345 l -18910 -5668 l -1129 3765 l 18980 5702 l 1058 -3800 z" stroke-linecap="round" />
  </g>
</svg>